<svg version="1.1" id="Capa_1" xmlns="http://www.w3.org/2000/svg" xmlns:xlink="http://www.w3.org/1999/xlink" x="0px" y="0px" viewBox="0 0 512 512" style="enable-background:new 0 0 512 512;" xml:space="preserve" width="51"  height="50" ><g><rect x="322" y="317.61" style="" width="30" height="77" fill="#3A4DE2"></rect><rect x="442" y="317.61" style="" width="30" height="77" fill="#3A4DE2"></rect></g><g><rect x="40" y="317.61" style="" width="30" height="77" fill="#6B77E8"></rect><rect x="160" y="317.61" style="" width="30" height="77" fill="#6B77E8"></rect></g><polygon style="" points="413,212.607 383,212.607 383,132.607 312,132.607 312,102.607 413,102.607 " fill="#3A4DE2"></polygon><polygon style="" points="130,212.607 100,212.607 100,102.607 200,102.607 200,132.607 130,132.607 " fill="#6B77E8"></polygon><path style="" d="M256,212.82l-95.213-95.213L256,22.393l95.213,95.213L256,212.82z" fill="#FF52A0"></path><polygon style="" points="351.213,117.607 256,22.393 256,22.394 256,212.82 256,212.82 " fill="#FF318E"></polygon><path style="" d="M230,332.607H0v-130h230V332.607z" fill="#FFF5CB"></path><path style="" d="M512,332.607H277v-130h235V332.607z" fill="#FFEC97"></path><path style="" d="M110,489.607H0v-110h110V489.607z" fill="#FF52A0"></path><path style="" d="M230,489.607H120v-110h110V489.607z" fill="#FFDB2D"></path><g><rect x="244.12" y="133.49" style="" width="12.4" height="13.12" fill="#FFF5CB"></rect><path style="" d="M271.68,97.807c-1.04-2.08-2.399-3.76-4.08-5.04c-1.68-1.28-3.56-2.213-5.64-2.8 c-2.08-0.586-4.134-0.88-6.16-0.88c-3.84,0-7.253,0.908-10.24,2.72c-2.987,1.813-5.174,4.347-6.56,7.6l9.68,6.88 c0.32-0.373,0.652-0.84,1-1.4c0.346-0.56,0.772-1.106,1.28-1.64c0.506-0.533,1.106-0.986,1.8-1.36c0.692-0.372,1.52-0.56,2.48-0.56 c1.28,0,2.399,0.36,3.359,1.08c0.96,0.72,1.44,1.694,1.44,2.92c0,1.12-0.4,2.147-1.2,3.08c-0.8,0.934-1.747,1.774-2.84,2.52 c-1.094,0.748-2.188,1.388-3.28,1.92c-1.094,0.534-1.934,0.96-2.52,1.28c-1.44,0.748-2.588,1.574-3.44,2.48 c-0.854,0.908-1.494,1.854-1.92,2.84c-0.427,0.988-0.693,2.028-0.8,3.12c-0.107,1.094-0.16,2.2-0.16,3.32h12.4 c0-0.852,0.332-1.6,1-2.24c0.666-0.64,1.52-1.252,2.56-1.84c1.04-0.586,2.173-1.173,3.4-1.76c1.226-0.586,2.426-1.28,3.6-2.08 c2.4-1.6,4.066-3.452,5-5.56c0.933-2.106,1.4-4.44,1.4-7C273.24,102.421,272.72,99.886,271.68,97.807z" fill="#FFF5CB"></path></g><path style="" d="M89.76,294.607l21.2-56.8h12.64l21.12,56.8h-16.48l-3.44-11.12h-15.12l-3.36,11.12H89.76z M117.28,254.047l-5.28,19.04h10.32L117.28,254.047z" fill="#FF52A0"></path><path style="" d="M424.641,280.047c0,2.56-0.534,4.76-1.601,6.6c-1.067,1.84-2.533,3.348-4.399,4.52 c-1.868,1.174-4.04,2.04-6.521,2.6c-2.479,0.56-5.107,0.84-7.88,0.84h-27.92v-56.8h32.96c1.973,0,3.76,0.427,5.36,1.28 c1.6,0.854,2.96,1.96,4.08,3.32s1.986,2.908,2.6,4.64c0.612,1.734,0.92,3.507,0.92,5.32c0,2.668-0.68,5.214-2.04,7.64 c-1.359,2.428-3.399,4.254-6.12,5.48c3.253,0.96,5.826,2.627,7.721,5C423.693,272.861,424.641,276.047,424.641,280.047z M391.921,251.087v8.72h10.64c1.066,0,2.04-0.292,2.92-0.88c0.88-0.586,1.32-1.76,1.32-3.52c0-1.546-0.374-2.652-1.12-3.32 c-0.748-0.666-1.628-1-2.641-1L391.921,251.087L391.921,251.087z M408.801,276.847c0-1.387-0.374-2.546-1.12-3.48 c-0.748-0.932-1.708-1.4-2.88-1.4h-12.88v9.52h12.319c1.28,0,2.36-0.4,3.24-1.2C408.36,279.487,408.801,278.341,408.801,276.847z" fill="#FF318E"></path><path style="" d="M72.465,442.707v11.9h-32.41v-11.9h9.94v-13.93c-0.42,0.56-1.074,1.109-1.96,1.645 c-0.887,0.537-1.879,1.039-2.975,1.505c-1.097,0.467-2.205,0.84-3.325,1.12s-2.124,0.42-3.01,0.42v-12.18 c0.653,0,1.563-0.245,2.73-0.735c1.166-0.49,2.333-1.073,3.5-1.75c1.166-0.676,2.228-1.4,3.185-2.17 c0.956-0.77,1.575-1.435,1.855-1.995h13.58v28.07L72.465,442.707L72.465,442.707z" fill="#FFDB2D"></path><path style="" d="M156.241,454.607c0-2.333,0.186-4.386,0.56-6.16c0.373-1.773,0.98-3.371,1.82-4.795 c0.84-1.423,1.925-2.695,3.255-3.815s2.975-2.216,4.935-3.29c2.52-1.353,4.515-2.438,5.985-3.255 c1.47-0.816,2.578-1.481,3.325-1.995c0.746-0.513,1.225-0.945,1.435-1.295s0.315-0.735,0.315-1.155c0-1.166-0.374-2.03-1.12-2.59 c-0.747-0.56-1.774-0.84-3.08-0.84c-1.54,0-2.999,0.397-4.375,1.19c-1.377,0.794-2.812,2.077-4.305,3.85l-8.4-9.87 c0.886-0.98,2.03-1.878,3.43-2.695c1.4-0.816,2.951-1.516,4.655-2.1c1.703-0.583,3.511-1.038,5.425-1.365 c1.913-0.326,3.873-0.49,5.88-0.49c5.366,0,9.438,1.109,12.215,3.325c2.776,2.217,4.165,5.309,4.165,9.275 c0,1.447-0.187,2.73-0.56,3.85c-0.374,1.12-0.875,2.135-1.505,3.045s-1.389,1.739-2.275,2.485c-0.887,0.747-1.82,1.447-2.8,2.1 c-1.167,0.794-2.392,1.552-3.675,2.275c-1.284,0.724-2.555,1.529-3.815,2.415h15.4v11.9H156.241z" fill="#FF52A0"></path><path style="" d="M392,489.607H282v-110h110V489.607z" fill="#FF318E"></path><g><path style="" d="M512,489.607H402v-110h110V489.607z" fill="#FFB64C"></path><path style="" d="M354.465,442.707v11.9h-32.41v-11.9h9.94v-13.93c-0.42,0.56-1.074,1.109-1.96,1.645 c-0.887,0.537-1.879,1.039-2.975,1.505c-1.097,0.467-2.205,0.84-3.325,1.12c-1.12,0.28-2.124,0.42-3.01,0.42v-12.18 c0.653,0,1.563-0.245,2.73-0.735c1.166-0.49,2.333-1.073,3.5-1.75c1.166-0.676,2.228-1.4,3.185-2.17 c0.956-0.77,1.575-1.435,1.855-1.995h13.58v28.07L354.465,442.707L354.465,442.707z" fill="#FFB64C"></path></g><path style="" d="M438.241,454.607c0-2.333,0.186-4.386,0.56-6.16c0.373-1.773,0.98-3.371,1.82-4.795 c0.84-1.423,1.925-2.695,3.255-3.815s2.975-2.216,4.935-3.29c2.52-1.353,4.515-2.438,5.985-3.255 c1.47-0.816,2.578-1.481,3.325-1.995c0.746-0.513,1.225-0.945,1.435-1.295s0.315-0.735,0.315-1.155c0-1.166-0.374-2.03-1.12-2.59 c-0.747-0.56-1.774-0.84-3.08-0.84c-1.54,0-2.999,0.397-4.375,1.19c-1.377,0.794-2.812,2.077-4.305,3.85l-8.4-9.87 c0.886-0.98,2.03-1.878,3.43-2.695c1.4-0.816,2.951-1.516,4.655-2.1c1.703-0.583,3.511-1.038,5.425-1.365 c1.913-0.326,3.873-0.49,5.88-0.49c5.366,0,9.438,1.109,12.215,3.325c2.776,2.217,4.165,5.309,4.165,9.275 c0,1.447-0.187,2.73-0.56,3.85c-0.374,1.12-0.875,2.135-1.505,3.045s-1.389,1.739-2.275,2.485c-0.887,0.747-1.82,1.447-2.8,2.1 c-1.167,0.794-2.392,1.552-3.675,2.275c-1.284,0.724-2.555,1.529-3.815,2.415h15.4v11.9H438.241z" fill="#FF318E"></path><g><path style="" d="M271.68,97.807c-1.04-2.08-2.399-3.76-4.08-5.04c-1.68-1.28-3.56-2.213-5.64-2.8 c-2.012-0.567-3.998-0.854-5.96-0.873v12.288c0.966,0.117,1.836,0.452,2.6,1.024c0.96,0.72,1.44,1.694,1.44,2.92 c0,1.12-0.4,2.147-1.2,3.08c-0.8,0.934-1.747,1.774-2.84,2.52v14.96h0.28c0-0.852,0.332-1.6,1-2.24 c0.666-0.64,1.52-1.252,2.56-1.84c1.04-0.586,2.173-1.173,3.4-1.76c1.226-0.586,2.426-1.28,3.6-2.08c2.4-1.6,4.066-3.452,5-5.56 c0.933-2.106,1.4-4.44,1.4-7C273.24,102.421,272.72,99.886,271.68,97.807z" fill="#FFEC97"></path><rect x="256" y="133.49" style="" width="0.52" height="13.12" fill="#FFEC97"></rect></g></svg>