<svg xmlns:xlink="http://www.w3.org/1999/xlink" xmlns:dc="http://purl.org/dc/elements/1.1/" xmlns:cc="http://creativecommons.org/ns#" xmlns:rdf="http://www.w3.org/1999/02/22-rdf-syntax-ns#" xmlns:svg="http://www.w3.org/2000/svg" xmlns="http://www.w3.org/2000/svg" xmlns:sodipodi="http://sodipodi.sourceforge.net/DTD/sodipodi-0.dtd" xmlns:inkscape="http://www.inkscape.org/namespaces/inkscape" width="51" height="50" viewBox="0 0 52.916665 15.264283" version="1.1" id="svg16" inkscape:version="0.91 r13725" sodipodi:docname="ASMInternational.svg">
  <defs id="defs10">
    <clipPath id="clip4-21">
      <path d="M 420.07812,58 448,58 l 0,31 -27.92188,0 z m 0,0" id="path14214" inkscape:connector-curvature="0"/>
    </clipPath>
    <clipPath id="clip5-25">
      <path d="m 550,69 2.75391,0 0,19 L 550,88 Z m 0,0" id="path14217" inkscape:connector-curvature="0"/>
    </clipPath>
    <clipPath id="clip6-1">
      <path d="m 515,56.691406 17,0 L 532,67 515,67 Z m 0,0" id="path14220" inkscape:connector-curvature="0"/>
    </clipPath>
    <clipPath id="clip7-2">
      <path d="m 533,56.691406 17,0 L 550,67 533,67 Z m 0,0" id="path14223" inkscape:connector-curvature="0"/>
    </clipPath>
    <clipPath id="clip8-2">
      <path d="m 534,89 17,0 0,10.214844 -17,0 z m 0,0" id="path14226" inkscape:connector-curvature="0"/>
    </clipPath>
    <clipPath id="clip9-2">
      <path d="m 515,89 17,0 0,10.214844 -17,0 z m 0,0" id="path14229" inkscape:connector-curvature="0"/>
    </clipPath>
    <clipPath id="clip10-1">
      <path d="m 485,93 6,0 0,6.214844 -6,0 z m 0,0" id="path14232" inkscape:connector-curvature="0"/>
    </clipPath>
    <clipPath id="clip11-4">
      <path d="M 420.07812,93 421,93 l 0,6 -0.92188,0 z m 0,0" id="path14235" inkscape:connector-curvature="0"/>
    </clipPath>
    <clipPath id="clip12-4">
      <path d="m 423,93 6,0 0,6.214844 -6,0 z m 0,0" id="path14238" inkscape:connector-curvature="0"/>
    </clipPath>
    <clipPath id="clip13-4">
      <path d="m 477,93 6,0 0,6.214844 -6,0 z m 0,0" id="path14241" inkscape:connector-curvature="0"/>
    </clipPath>
    <clipPath id="clip14-3">
      <path d="m 452,93 6,0 0,6.214844 -6,0 z m 0,0" id="path14244" inkscape:connector-curvature="0"/>
    </clipPath>
  </defs>
  <sodipodi:namedview id="base" pagecolor="#ffffff" bordercolor="#666666" borderopacity="1.0" inkscape:pageopacity="0" inkscape:pageshadow="2" inkscape:zoom="2.8421824" inkscape:cx="148.78074" inkscape:cy="29.171423" inkscape:document-units="px" inkscape:current-layer="g14815" inkscape:document-rotation="0" showgrid="false" units="px" lock-margins="true" fit-margin-top="0.5" fit-margin-left="0.5" fit-margin-right="0.5" fit-margin-bottom="0.5" inkscape:window-width="1440" inkscape:window-height="874" inkscape:window-x="0" inkscape:window-y="26" inkscape:window-maximized="0"/>
  <metadata id="metadata13">
    <rdf:RDF>
      <cc:Work rdf:about="">
        <dc:format>image/svg+xml</dc:format>
        <dc:type rdf:resource="http://purl.org/dc/dcmitype/StillImage"/>
        <dc:title/>
      </cc:Work>
    </rdf:RDF>
  </metadata>
  <g inkscape:label="Layer 1" inkscape:groupmode="layer" id="layer1" transform="translate(-76.874956,-67.46906)">
    <g id="g14815" transform="translate(137.99077,148.91808)">
      <g clip-path="url(#clip4-21)" id="g14263" transform="matrix(0.4003641,0,0,0.4003641,-228.05062,-103.23158)" style="clip-rule:nonzero">
        <path style="fill:#5c5457;fill-opacity:1;fill-rule:nonzero;stroke:none" d="m 429.28125,76.335938 4.19922,-9.78125 0.004,0 c 0.0469,-0.113282 0.0977,-0.128907 0.15235,-0.128907 0.0508,0 0.10156,0.01563 0.14844,0.125 l 4.29296,9.785157 z m 4.47266,-18.011719 c -0.3125,0 -0.60547,0.105469 -0.90625,0.785156 l -12.76954,28.945313 4.13672,0 3.53125,-8.171876 11.81641,0 3.44531,8.171876 4.17969,0 -12.53125,-28.945313 c -0.29297,-0.683594 -0.58984,-0.785156 -0.90234,-0.785156" id="path14261" inkscape:connector-curvature="0"/>
      </g>
      <path style="fill:#5c5457;fill-opacity:1;fill-rule:nonzero;stroke:none;stroke-width:0.35277799" d="m -28.264242,-79.556915 c -0.05943,-0.303401 -0.186109,-0.367521 -0.28307,-0.367521 -0.120422,0 -0.225205,0.101652 -0.312784,0.301836 l -3.6283,8.37324 -3.629865,-8.37324 c -0.08602,-0.200183 -0.192363,-0.301836 -0.312785,-0.301836 -0.09697,0 -0.223639,0.06412 -0.283069,0.367521 l -2.244229,11.57928 1.549845,0 1.351229,-7.097078 c 0.02972,-0.140754 0.09071,-0.172033 0.137625,-0.172033 0.0438,0 0.08445,0.02814 0.120425,0.08289 l 3.110643,7.186223 0.398798,0 3.11064,-7.184659 c 0.03599,-0.0563 0.07663,-0.08445 0.120423,-0.08445 0.04691,0 0.104784,0.02972 0.136062,0.162647 l 1.354356,7.106464 1.548284,0 z m 0,0" id="path14265" inkscape:connector-curvature="0"/>
      <path style="fill:#5c5457;fill-opacity:1;fill-rule:nonzero;stroke:none;stroke-width:0.35277799" d="m -43.401449,-74.852636 -0.864846,-0.336244 -0.08915,-0.03596 c -0.877358,-0.34719 -1.967414,-0.821059 -1.967414,-1.704675 0,-1.033752 1.10882,-1.726571 2.134755,-1.726571 0.980579,0 1.374685,0.239282 2.137879,1.002476 0.08758,0.08758 0.308096,0.222076 0.525478,0.198617 0.182982,-0.02034 0.337808,-0.117293 0.380034,-0.14388 0.03912,-0.01877 0.143882,-0.07663 0.258047,-0.212693 0.186109,-0.220514 0.121987,-0.559886 0.0078,-0.706893 -0.774144,-1.004039 -1.937704,-1.556103 -3.274855,-1.556103 -2.148829,0 -3.769051,1.362176 -3.769051,3.101259 0,1.740644 1.438808,2.530424 2.913586,3.123151 l 0.796036,0.304966 c 1.171376,0.472304 2.383418,0.985269 2.383418,2.261431 0,1.287108 -1.359051,2.084708 -2.618009,2.084708 -1.280853,0 -2.309912,-0.841391 -2.503837,-2.044046 l -0.02502,-0.178288 -1.664015,0 c 0.0125,0.36283 0.06569,0.57396 0.06569,0.57396 0.433207,1.864195 2.054993,3.068415 4.161597,3.068415 2.366215,0 4.221028,-1.613967 4.221028,-3.67678 0,-1.940828 -1.58582,-2.769707 -3.209173,-3.39684" id="path14267" inkscape:connector-curvature="0"/>
      <g clip-path="url(#clip5-25)" id="g14271" transform="matrix(0.35277779,0,0,0.35277779,-203.92062,-101.31701)" style="clip-rule:nonzero">
        <path style="fill:#e3000c;fill-opacity:1;fill-rule:nonzero;stroke:none" d="m 551.55078,69.527344 c -0.66406,0 -1.20703,0.683594 -1.20703,1.347656 l 0,15.285156 c 0,0.664063 0.54297,1.351563 1.20703,1.351563 0.66406,0 1.20703,-0.6875 1.20703,-1.351563 l 0,-15.285156 c 0,-0.664062 -0.54297,-1.347656 -1.20703,-1.347656" id="path14269" inkscape:connector-curvature="0"/>
      </g>
      <path style="fill:#e3000c;fill-opacity:1;fill-rule:nonzero;stroke:none;stroke-width:0.35277799" d="m -22.532206,-76.789307 c -0.232886,0 -0.424434,0.242534 -0.424434,0.475423 l 0.0028,5.393641 c 0,0.234267 0.191548,0.475424 0.425814,0.475424 0.232889,0 0.424437,-0.242535 0.424437,-0.476802 l -0.0028,-5.392263 c 0,-0.234266 -0.191548,-0.475423 -0.425817,-0.475423" id="path14273" inkscape:connector-curvature="0"/>
      <g clip-path="url(#clip6-1)" id="g14277" transform="matrix(0.35277779,0,0,0.35277779,-203.92062,-101.31701)" style="clip-rule:nonzero">
        <path style="fill:#e3000c;fill-opacity:1;fill-rule:nonzero;stroke:none" d="m 517.8125,66.664062 13.33203,-7.703124 c 0.57422,-0.332032 0.89453,-1.144532 0.5625,-1.71875 -0.33203,-0.574219 -1.19922,-0.699219 -1.77344,-0.367188 l -13.32812,7.703125 c -0.57422,0.332031 -0.89453,1.144531 -0.56641,1.71875 0.33203,0.574219 1.19922,0.703125 1.77344,0.367187" id="path14275" inkscape:connector-curvature="0"/>
      </g>
      <g clip-path="url(#clip7-2)" id="g14281" transform="matrix(0.35277779,0,0,0.35277779,-203.92062,-101.31701)" style="clip-rule:nonzero">
        <path style="fill:#e3000c;fill-opacity:1;fill-rule:nonzero;stroke:none" d="m 534.56641,58.964844 13.33984,7.683594 c 0.57812,0.332031 1.44141,0.203124 1.77344,-0.371094 0.32812,-0.574219 0.004,-1.386719 -0.56641,-1.71875 L 535.76953,56.875 c -0.57422,-0.332031 -1.44141,-0.203125 -1.76953,0.367188 -0.33203,0.578124 -0.008,1.390624 0.56641,1.722656" id="path14279" inkscape:connector-curvature="0"/>
      </g>
      <path style="fill:#e3000c;fill-opacity:1;fill-rule:nonzero;stroke:none;stroke-width:0.35277799" d="m -15.428418,-70.822402 -0.08682,0 0.0014,-1.655024 c 0,-0.234266 -0.191548,-0.476801 -0.425817,-0.476801 -0.234266,0 -0.425814,0.242535 -0.425814,0.476801 l 0,1.655024 -4.209905,0 0.0014,-0.0014 c -0.05237,-0.0041 -0.08406,-0.01929 -0.09509,-0.04685 -0.0069,-0.02067 -0.0014,-0.05099 0.04823,-0.08406 l 4.131296,-2.294436 c 0.163985,-0.07717 0.344509,-0.13367 0.551215,-0.135048 0.230131,0 0.445107,0.08268 0.609092,0.162609 l 4.080373,2.266873 c 0.04961,0.03307 0.05374,0.06339 0.04685,0.08406 -0.0096,0.02756 -0.04134,0.04272 -0.09508,0.04685 l 0.0014,0.0014 z m -5.419824,-0.373448 c -0.01792,-0.02067 -0.01379,-0.05374 0.0069,-0.09509 l 2.053279,-3.436827 c 0.02342,-0.03996 0.04961,-0.08406 0.07717,-0.129536 l 1.464853,0.847494 c 0.203948,0.117133 0.508497,0.07304 0.62563,-0.129536 0.117133,-0.202571 0.0041,-0.489203 -0.199817,-0.606337 l -1.455208,-0.840603 c 0.0028,-0.0055 0.0055,-0.0096 0.0069,-0.01378 l 2.060169,-3.44923 c 0.02893,-0.0441 0.05788,-0.06477 0.08819,-0.05926 0.02067,0.0028 0.04547,0.02205 0.04961,0.08406 l 0,4.349089 c 0,0.191547 -0.01242,0.49885 -0.158474,0.757921 -0.148827,0.264584 -0.372072,0.417545 -0.588423,0.542947 l -3.932919,2.184191 c -0.0565,0.02343 -0.08406,0.0124 -0.09784,-0.0055 m 5.047778,-7.830012 c 0.0055,-0.06063 0.0303,-0.07993 0.05099,-0.08268 0.02893,-0.0055 0.0565,0.01516 0.08544,0.05788 l 2.061545,3.450608 c 0.0028,0.0041 0.0055,0.0096 0.0083,0.01516 l -1.459343,0.841981 c -0.202572,0.117133 -0.316946,0.403765 -0.199813,0.606337 0.117132,0.202572 0.423058,0.248047 0.625626,0.130914 l 1.470367,-0.848872 c 0.02618,0.0441 0.05237,0.08682 0.0758,0.12678 l 2.053276,3.438205 c 0.0193,0.04134 0.02342,0.07304 0.0069,0.09371 -0.01379,0.01791 -0.04272,0.02894 -0.09784,0.0055 l -3.934302,-2.184191 c -0.216351,-0.125401 -0.438213,-0.278363 -0.587043,-0.542946 -0.147451,-0.259072 -0.159851,-0.566374 -0.159851,-0.757922 z m 5.058777,8.207595 c 0.09508,-0.16812 0.08131,-0.37896 -0.03721,-0.578776 l -2.072569,-3.468522 -0.07304,-0.124023 2.746432,-1.586123 c 0.2025681,-0.117133 0.3169461,-0.403765 0.1998131,-0.606336 -0.1171331,-0.202572 -0.4216791,-0.246669 -0.6242511,-0.130914 l -2.758831,1.593012 -0.01101,-0.01791 -2.072569,-3.4699 c -0.117133,-0.197059 -0.296281,-0.310058 -0.490584,-0.310058 -0.194303,0 -0.373447,0.112999 -0.49058,0.310058 l -2.072569,3.4699 -0.0096,0.01654 -2.761622,-1.595771 c -0.202572,-0.117133 -0.508498,-0.07166 -0.624251,0.130914 -0.117133,0.202571 -0.0041,0.489203 0.198437,0.606337 l 2.750563,1.588878 -0.07304,0.125401 -2.073945,3.468522 c -0.118512,0.199816 -0.132292,0.410656 -0.03721,0.578776 0.09646,0.166743 0.283873,0.263206 0.516763,0.263206 l 4.247113,0 0,3.216341 c 0,0.234267 0.191547,0.476801 0.424437,0.475423 0.234266,0.0014 0.425813,-0.241156 0.425813,-0.475423 l 0,-3.216341 4.258138,0 c 0.23289,0 0.420303,-0.09646 0.515387,-0.263206" id="path14283" inkscape:connector-curvature="0"/>
      <g clip-path="url(#clip8-2)" id="g14287" transform="matrix(0.35277779,0,0,0.35277779,-203.92062,-101.31701)" style="clip-rule:nonzero">
        <path style="fill:#e3000c;fill-opacity:1;fill-rule:nonzero;stroke:none" d="m 548.26953,89.453125 -12.97266,7.492187 c -0.57421,0.332032 -0.89843,1.144532 -0.5664,1.71875 0.33203,0.574219 1.19922,0.699219 1.76953,0.367188 l 12.97656,-7.488281 c 0.57422,-0.332031 0.89844,-1.144531 0.56641,-1.71875 -0.33203,-0.578125 -1.19922,-0.703125 -1.77344,-0.371094" id="path14285" inkscape:connector-curvature="0"/>
      </g>
      <g clip-path="url(#clip9-2)" id="g14291" transform="matrix(0.35277779,0,0,0.35277779,-203.92062,-101.31701)" style="clip-rule:nonzero">
        <path style="fill:#e3000c;fill-opacity:1;fill-rule:nonzero;stroke:none" d="M 530.43359,96.941406 517.45703,89.457031 C 516.87891,89.125 516.01562,89.25 515.68359,89.828125 c -0.32812,0.570313 -0.008,1.386719 0.56641,1.714844 l 12.98047,7.488281 c 0.57422,0.332031 1.4375,0.203125 1.76953,-0.371094 0.33203,-0.574218 0.008,-1.386718 -0.56641,-1.71875" id="path14289" inkscape:connector-curvature="0"/>
      </g>
      <g clip-path="url(#clip10-1)" id="g14295" transform="matrix(0.35277779,0,0,0.35277779,-204.38608,-101.31701)" style="clip-rule:nonzero"/>
      <g clip-path="url(#clip11-4)" id="g14305" transform="matrix(0.35277779,0,0,0.35277779,-204.38608,-101.31701)" style="clip-rule:nonzero"/>
      <g clip-path="url(#clip12-4)" id="g14309" transform="matrix(0.35277779,0,0,0.35277779,-204.38608,-101.31701)" style="clip-rule:nonzero"/>
      <g clip-path="url(#clip13-4)" id="g14319" transform="matrix(0.35277779,0,0,0.35277779,-204.38608,-101.31701)" style="clip-rule:nonzero"/>
      <g clip-path="url(#clip14-3)" id="g14323" transform="matrix(0.35277779,0,0,0.35277779,-204.38608,-101.31701)" style="clip-rule:nonzero"/>
    </g>
  </g>
</svg>