<svg version="1.1" id="Layer_1" xmlns="http://www.w3.org/2000/svg" xmlns:xlink="http://www.w3.org/1999/xlink" x="0px" y="0px" viewBox="0 0 508 508" style="enable-background:new 0 0 508 508;" xml:space="preserve" width="51"  height="50" ><circle style="" cx="254" cy="254" r="254" fill="#39B39B"></circle><g><rect x="246.2" y="203" style="" width="15.6" height="141.6" fill="#2E4555"></rect><polygon style="" points="389,336.8 373.4,336.8 373.4,285 134.6,285 134.6,336.8 119,336.8 119,269.4 389,269.4 " fill="#2E4555"></polygon></g><g><rect x="155.2" y="111.2" style="" width="197.6" height="123" fill="#EDF0F2"></rect><rect x="341.6" y="317.4" style="" width="79.4" height="79.4" fill="#EDF0F2"></rect><rect x="214.4" y="317.4" style="" width="79.4" height="79.4" fill="#EDF0F2"></rect><rect x="87.2" y="317.4" style="" width="79.4" height="79.4" fill="#EDF0F2"></rect></g><rect x="102" y="334.6" style="" width="49.6" height="2.8" fill="#39B39B"></rect><g><rect x="102" y="348.6" style="" width="49.6" height="2.8" fill="#BCBFC2"></rect><rect x="102" y="362.8" style="" width="49.6" height="2.8" fill="#BCBFC2"></rect><rect x="102" y="376.8" style="" width="27.6" height="2.8" fill="#BCBFC2"></rect></g><rect x="229.2" y="334.6" style="" width="49.6" height="2.8" fill="#E65336"></rect><g><rect x="229.2" y="348.6" style="" width="49.6" height="2.8" fill="#BCBFC2"></rect><rect x="229.2" y="362.8" style="" width="49.6" height="2.8" fill="#BCBFC2"></rect><rect x="229.2" y="376.8" style="" width="27.6" height="2.8" fill="#BCBFC2"></rect></g><rect x="246.2" y="134.4" style="" width="84.2" height="4.8" fill="#E65336"></rect><g><rect x="246.2" y="158.4" style="" width="84.2" height="4.8" fill="#BCBFC2"></rect><rect x="246.2" y="182.2" style="" width="84.2" height="4.8" fill="#BCBFC2"></rect><rect x="246.2" y="206" style="" width="47" height="4.8" fill="#BCBFC2"></rect></g><rect x="356.4" y="334.6" style="" width="49.6" height="2.8" fill="#F2CD56"></rect><g><rect x="356.4" y="348.6" style="" width="49.6" height="2.8" fill="#BCBFC2"></rect><rect x="356.4" y="362.8" style="" width="49.6" height="2.8" fill="#BCBFC2"></rect><rect x="356.4" y="376.8" style="" width="27.6" height="2.8" fill="#BCBFC2"></rect></g><rect x="177.4" y="134.4" style="" width="46" height="52.6" fill="#6DB8E0"></rect></svg>