<svg xmlns:xlink="http://www.w3.org/1999/xlink" id="Capa_1" enable-background="new 0 0 512 512" viewBox="0 0 512 512" xmlns="http://www.w3.org/2000/svg" width="51"  height="50" ><g><path d="m293.75 0-30 45 30 45c33.36 0 60.5 27.141 60.5 60.5s-27.14 60.5-60.5 60.5l-30 45 30 45c82.986 0 150.5-67.514 150.5-150.5s-67.514-150.5-150.5-150.5z" fill="#B82D86"></path><path d="m233.25 211v-60.5c0-33.359 27.14-60.5 60.5-60.5v-90c-39.904 0-77.51 15.563-105.544 43.208-28.053-27.645-65.628-43.208-105.456-43.208h-15v90h15c33.36 0 60.5 27.141 60.5 60.5v361.5h90v-211h60.5v-90z" fill="#ED2A94"></path></g></svg>